<svg width="32" height="33" viewBox="0 0 32 33" fill="none" xmlns="http://www.w3.org/2000/svg">
<path d="M15.8378 8.9775C18.3003 8.9775 20.2965 6.96782 20.2965 4.48875C20.2965 2.00968 18.3003 0 15.8378 0C13.3754 0 11.3792 2.00968 11.3792 4.48875C11.3792 6.96782 13.3754 8.9775 15.8378 8.9775Z" fill="#085C60"/>
<path d="M3.62936 13.9388C5.63381 13.9388 7.25873 12.3029 7.25873 10.285C7.25873 8.26699 5.63381 6.6311 3.62936 6.6311C1.62492 6.6311 0 8.26699 0 10.285C0 12.3029 1.62492 13.9388 3.62936 13.9388Z" fill="#085C60"/>
<path d="M13.6064 31.2044C11.3432 29.8308 5.15561 25.6479 2.1567 19.3606C0.931854 16.7932 1.84165 16.003 3.0257 14.6295C3.85064 14.8682 4.76263 14.8154 5.59667 14.4121C6.43144 14.0087 7.04259 13.3253 7.37329 12.5281C7.75899 12.5127 8.11592 12.4911 8.45136 12.4907C8.40183 12.875 8.37706 13.2937 8.37706 13.7535C8.37706 17.513 9.24643 21.5548 10.9604 25.7667C11.8331 27.9102 12.796 29.7707 13.6086 31.1915C13.6079 31.1952 13.6068 31.2003 13.6064 31.2044Z" fill="#085C60"/>
<path d="M9.41333 13.7525C9.41333 10.2534 10.8381 9.86549 12.8748 8.97778C13.6626 9.68362 14.6999 10.1134 15.838 10.1134C16.9762 10.1134 18.0131 9.68399 18.8012 8.97778C20.8379 9.86549 22.2627 10.2538 22.2627 13.7525C22.2627 22.3216 17.6197 30.2669 15.838 33.0001C14.0567 30.2669 9.41333 22.3219 9.41333 13.7525Z" fill="#085C60"/>
<path d="M29.5188 19.3605C26.5202 25.6481 20.3327 29.8307 18.0691 31.2042C18.0687 31.1995 18.068 31.1951 18.0669 31.1903C18.8787 29.7695 19.8424 27.909 20.7151 25.7655C22.4294 21.5535 23.2984 17.5118 23.2984 13.7523C23.2984 13.2925 23.2733 12.8738 23.2241 12.4895C23.5596 12.4895 23.9161 12.5115 24.3022 12.5269C24.6329 13.3244 25.244 14.0075 26.0788 14.4108C26.9136 14.8142 27.8248 14.867 28.6498 14.6283C29.8338 16.0029 30.7436 16.7935 29.5188 19.3605Z" fill="#085C60"/>
<path d="M28.0471 13.9388C30.0515 13.9388 31.6765 12.3029 31.6765 10.285C31.6765 8.26699 30.0515 6.6311 28.0471 6.6311C26.0426 6.6311 24.4177 8.26699 24.4177 10.285C24.4177 12.3029 26.0426 13.9388 28.0471 13.9388Z" fill="#085C60"/>
</svg>
