<svg width="654" height="654" viewBox="0 0 654 654" fill="none" xmlns="http://www.w3.org/2000/svg">
<path opacity="0.25" d="M67 13.5V628.5M141.249 1L141.249 653M216.048 1L216.048 653M290.847 1L290.847 653M365.646 1L365.646 653M440.445 1L440.445 653M515.245 1L515.245 653M590.044 1V653M1 588.797L653 588.797M1 513.998L653 513.998M1 439.199L653 439.199M1 364.4L653 364.4M1 289.601L653 289.601M1 214.801L653 214.801M1 140.002L653 140.002M1 65.2028L653 65.2029" stroke="#979797" stroke-linecap="round"/>
</svg>
